<svg width="120" height="120" viewBox="0 0 120 120" fill="none" xmlns="http://www.w3.org/2000/svg">
<path d="M117.012 77.7221L118.494 26.5123C118.611 22.4777 115.425 19.1017 111.39 18.9849L60.1804 17.5027C56.1458 17.386 52.7697 20.5721 52.653 24.6067L51.1708 75.8165C51.054 79.8511 54.2402 83.2272 58.2748 83.3439L109.485 84.8261C113.519 84.9429 116.895 81.7567 117.012 77.7221ZM59.9687 24.8184L111.179 26.3006L109.696 77.5104L58.4863 76.0356L59.9687 24.8184Z" fill="#3163F5"/>
<path d="M94.4009 36.7975C94.3132 39.8277 96.6986 42.3552 99.7288 42.4429C102.759 42.5306 105.287 40.1453 105.374 37.1151C105.462 34.0849 103.077 31.5573 100.046 31.4696C97.0162 31.3819 94.4886 33.7673 94.4009 36.7975Z" fill="url(#paint0_linear)"/>
<path d="M79.3463 51.0052C79.2586 54.0354 81.644 56.563 84.6742 56.6507C87.7044 56.7384 90.232 54.353 90.3197 51.3228C90.4074 48.2926 88.022 45.765 84.9918 45.6773C81.9616 45.5896 79.434 47.975 79.3463 51.0052Z" fill="url(#paint1_linear)"/>
<path d="M64.2917 65.2129C64.204 68.2431 66.5893 70.7707 69.6196 70.8584C72.6498 70.9461 75.1773 68.5607 75.265 65.5305C75.3527 62.5003 72.9674 59.9728 69.9372 59.8851C66.9069 59.7974 64.3794 62.1827 64.2917 65.2129Z" fill="#FA7267"/>
<rect x="34.941" y="21.9861" width="63.203" height="65.6157" transform="matrix(0.865839 0.499907 -0.500323 0.866079 15.6879 -14.5229)" fill="white"/>
<path d="M88.5331 47.7434L42.6365 21.2369C39.0205 19.1485 34.3815 20.3909 32.2932 24.0069L5.78664 69.9035C3.6983 73.5194 4.94065 78.1584 8.55665 80.2468L54.4532 106.753C58.0692 108.842 62.7082 107.599 64.7965 103.983L91.3031 58.0867C93.3914 54.4707 92.1491 49.8317 88.5331 47.7434ZM12.3433 73.6901L38.8498 27.7935L84.7464 54.3001L58.2464 100.2L12.3433 73.6901Z" fill="#3163F5"/>
<path d="M40.1649 48.226C42.8807 49.7945 46.3539 48.8643 47.9224 46.1485C49.4908 43.4326 48.5607 39.9595 45.8449 38.391C43.129 36.8225 39.6559 37.7526 38.0874 40.4685C36.5189 43.1843 37.449 46.6575 40.1649 48.226Z" fill="url(#paint2_linear)"/>
<path d="M45.7049 68.9126C48.4207 70.481 51.8939 69.5509 53.4623 66.8351C55.0308 64.1192 54.1007 60.6461 51.3848 59.0776C48.669 57.5091 45.1958 58.4392 43.6274 61.1551C42.0589 63.8709 42.989 67.3441 45.7049 68.9126Z" fill="url(#paint3_linear)"/>
<path d="M51.2449 89.5991C53.9608 91.1676 57.4339 90.2375 59.0024 87.5216C60.5709 84.8058 59.6407 81.3326 56.9249 79.7642C54.209 78.1957 50.7359 79.1258 49.1674 81.8417C47.5989 84.5575 48.529 88.0307 51.2449 89.5991Z" fill="url(#paint4_linear)"/>
<path d="M25.0183 74.4525C27.7341 76.021 31.2073 75.0909 32.7758 72.3751C34.3442 69.6592 33.4141 66.1861 30.6983 64.6176C27.9824 63.0491 24.5093 63.9792 22.9408 66.6951C21.3723 69.4109 22.3024 72.8841 25.0183 74.4525Z" fill="url(#paint5_linear)"/>
<path d="M66.3915 63.3726C69.1074 64.941 72.5805 64.0109 74.149 61.2951C75.7175 58.5792 74.7873 55.1061 72.0715 53.5376C69.3556 51.9691 65.8825 52.8992 64.314 55.6151C62.7455 58.3309 63.6757 61.8041 66.3915 63.3726Z" fill="url(#paint6_linear)"/>
<defs>
<linearGradient id="paint0_linear" x1="94.5762" y1="30.7432" x2="94.5876" y2="42.6119" gradientUnits="userSpaceOnUse">
<stop stop-color="#DB5852"/>
<stop offset="1" stop-color="#FA7267"/>
</linearGradient>
<linearGradient id="paint1_linear" x1="79.5215" y1="44.9509" x2="79.5329" y2="56.8197" gradientUnits="userSpaceOnUse">
<stop stop-color="#DB5852"/>
<stop offset="1" stop-color="#FA7267"/>
</linearGradient>
<linearGradient id="paint2_linear" x1="34.7387" y1="45.0922" x2="45.5505" y2="50.9125" gradientUnits="userSpaceOnUse">
<stop stop-color="#DB5852"/>
<stop offset="1" stop-color="#FA7267"/>
</linearGradient>
<linearGradient id="paint3_linear" x1="40.2787" y1="65.7788" x2="51.0905" y2="71.5991" gradientUnits="userSpaceOnUse">
<stop stop-color="#DB5852"/>
<stop offset="1" stop-color="#FA7267"/>
</linearGradient>
<linearGradient id="paint4_linear" x1="45.8187" y1="86.4654" x2="56.6305" y2="92.2857" gradientUnits="userSpaceOnUse">
<stop stop-color="#DB5852"/>
<stop offset="1" stop-color="#FA7267"/>
</linearGradient>
<linearGradient id="paint5_linear" x1="19.5921" y1="71.3188" x2="30.4039" y2="77.1391" gradientUnits="userSpaceOnUse">
<stop stop-color="#DB5852"/>
<stop offset="1" stop-color="#FA7267"/>
</linearGradient>
<linearGradient id="paint6_linear" x1="60.9653" y1="60.2388" x2="71.7771" y2="66.0591" gradientUnits="userSpaceOnUse">
<stop stop-color="#DB5852"/>
<stop offset="1" stop-color="#FA7267"/>
</linearGradient>
</defs>
</svg>
