<svg width="120" height="120" viewBox="0 0 120 120" fill="none" xmlns="http://www.w3.org/2000/svg">
<path d="M95.3551 24.645C90.7271 19.9803 85.2197 16.28 79.1518 13.7584C73.0839 11.2369 66.576 9.94409 60.0051 9.95498C53.4327 9.9447 46.9235 11.2377 40.8541 13.7592C34.7846 16.2807 29.2754 19.9806 24.6451 24.645C5.15005 44.135 5.15005 75.86 24.6451 95.355C29.2755 100.021 34.7854 103.721 40.8559 106.243C46.9264 108.764 53.4367 110.057 60.0101 110.045C66.5807 110.057 73.0883 108.765 79.1562 106.244C85.2241 103.723 90.7317 100.024 95.3601 95.36C114.855 75.87 114.855 44.145 95.3551 24.645ZM60.9051 20H59.1101C59.4151 19.995 59.7051 19.955 60.0101 19.955C60.3151 19.955 60.6001 19.995 60.9051 20ZM91.2151 85H80.0001L73.7101 97.58C69.3222 99.201 64.6828 100.035 60.0051 100.045C55.3187 100.036 50.6706 99.2002 46.2751 97.575L40.0001 85.05H28.8251C24.7022 79.9244 21.9141 73.8568 20.7101 67.39L30.0001 55L23.9201 42.835C25.8601 38.7079 28.497 34.9462 31.7151 31.715C36.219 27.1953 41.7395 23.8195 47.8151 21.87L60.0001 30L72.1901 21.875C78.2638 23.8259 83.7837 27.1995 88.2901 31.715C91.5046 34.9423 94.1397 38.6988 96.0801 42.82L90.0001 55L99.2901 67.39C98.0915 73.836 95.3175 79.8855 91.2151 85Z" fill="#3163F5"/>
<path d="M42.5 55L50 75H70L77.5 55L60 42.5L42.5 55Z" fill="url(#paint0_linear)"/>
<defs>
<linearGradient id="paint0_linear" x1="40.6897" y1="75" x2="78.5074" y2="73.7822" gradientUnits="userSpaceOnUse">
<stop stop-color="#DB5852"/>
<stop offset="1" stop-color="#FA7267"/>
</linearGradient>
</defs>
</svg>
