<svg width="120" height="120" viewBox="0 0 120 120" fill="none" xmlns="http://www.w3.org/2000/svg">
<path d="M15 40V95C15 106.005 23.97 110 30 110H105V100H30.06C27.75 99.94 25 99.03 25 95C25 90.97 27.75 90.06 30.06 90H105V20C105 14.485 100.515 10 95 10H30C23.97 10 15 13.995 15 25V40ZM30 20H95V80H25V25C25 20.97 27.75 20.06 30 20Z" fill="#3163F5"/>
<path d="M59.9849 69.9999L76.7349 53.5549C77.7677 52.5617 78.5893 51.3702 79.1505 50.0518C79.7117 48.7334 80.001 47.3153 80.001 45.8824C80.001 44.4496 79.7117 43.0315 79.1505 41.7131C78.5893 40.3947 77.7677 39.2032 76.7349 38.2099C74.6529 36.155 71.8453 35.0027 68.9199 35.0027C65.9946 35.0027 63.1869 36.155 61.1049 38.2099L59.9849 39.2999L58.8649 38.2049C56.7838 36.1503 53.977 34.9982 51.0524 34.9982C48.1279 34.9982 45.3211 36.1503 43.2399 38.2049C42.2072 39.1982 41.3856 40.3897 40.8244 41.7081C40.2632 43.0265 39.9739 44.4446 39.9739 45.8774C39.9739 47.3103 40.2632 48.7284 40.8244 50.0468C41.3856 51.3652 42.2072 52.5567 43.2399 53.5499L59.9849 69.9999Z" fill="url(#paint0_linear)"/>
<defs>
<linearGradient id="paint0_linear" x1="37.9035" y1="69.9999" x2="81.1473" y2="68.5212" gradientUnits="userSpaceOnUse">
<stop stop-color="#DB5852"/>
<stop offset="1" stop-color="#FA7267"/>
</linearGradient>
</defs>
</svg>
