<svg width="120" height="120" viewBox="0 0 120 120" fill="none" xmlns="http://www.w3.org/2000/svg">
<path d="M55.0001 77.0699V99.9999H65.0001V77.0699C65.0001 74.4399 63.9301 71.8599 62.0701 69.9999L52.0701 59.9999L65.0001 47.0699L75.0001 57.0699C76.8601 58.9299 79.4401 59.9999 82.0701 59.9999H100V49.9999H82.0701L63.5351 31.4649C63.0711 31.0002 62.5201 30.6315 61.9135 30.38C61.307 30.1284 60.6567 29.9989 60.0001 29.9989C59.3434 29.9989 58.6932 30.1284 58.0866 30.38C57.48 30.6315 56.929 31.0002 56.4651 31.4649L40.0001 47.9299C38.1101 49.8199 37.0701 52.3299 37.0701 54.9999C37.0701 57.6699 38.1101 60.1799 40.0001 62.0699L55.0001 77.0699Z" fill="#3163F5"/>
<path d="M80 35C85.5229 35 90 30.5228 90 25C90 19.4772 85.5229 15 80 15C74.4772 15 70 19.4772 70 25C70 30.5228 74.4772 35 80 35Z" fill="#3163F5"/>
<path d="M90 69.9999C78.97 69.9999 70 78.97 70 90C70 101.03 78.97 110 90 110C101.03 110 110 101.03 110 90C110 78.97 101.03 69.9999 90 69.9999ZM90 100C84.485 100 80 95.515 80 90C80 84.485 84.485 80 90 80C95.515 80 100 84.485 100 90C100 95.515 95.515 100 90 100ZM30 110C41.03 110 50 101.03 50 90C50 78.97 41.03 69.9999 30 69.9999C18.97 69.9999 10 78.97 10 90C10 101.03 18.97 110 30 110ZM30 80C35.515 80 40 84.485 40 90C40 95.515 35.515 100 30 100C24.485 100 20 95.515 20 90C20 84.485 24.485 80 30 80Z" fill="url(#paint0_linear)"/>
<defs>
<linearGradient id="paint0_linear" x1="4.82758" y1="110" x2="112.389" y2="101.959" gradientUnits="userSpaceOnUse">
<stop stop-color="#DB5852"/>
<stop offset="1" stop-color="#FA7267"/>
</linearGradient>
</defs>
</svg>
