<svg width="120" height="120" viewBox="0 0 120 120" fill="none" xmlns="http://www.w3.org/2000/svg">
<path d="M35 110H85C86.2032 110 87.3661 109.566 88.2753 108.778C89.1846 107.99 89.7791 106.901 89.95 105.71L99.335 40H105V30H98.09L89.47 12.765C89.056 11.9338 88.4182 11.2347 87.6286 10.7462C86.8389 10.2577 85.9286 9.9993 85 9.99996H35C33.105 9.99996 31.375 11.07 30.525 12.765L21.91 30H15V40H20.665L30.05 105.71C30.2209 106.901 30.8154 107.99 31.7247 108.778C32.6339 109.566 33.7968 110 35 110ZM87.09 55H32.91L30.765 40H89.23L87.09 55ZM39.335 100L37.19 85H82.805L80.66 100H39.335ZM38.09 20H81.91L86.91 30H33.09L38.09 20Z" fill="#3163F5"/>
<path d="M33 55H87L83 85H37L33 55Z" fill="url(#paint0_linear)"/>
<defs>
<linearGradient id="paint0_linear" x1="30.2069" y1="85" x2="88.446" y2="81.8653" gradientUnits="userSpaceOnUse">
<stop stop-color="#DB5852"/>
<stop offset="1" stop-color="#FA7267"/>
</linearGradient>
</defs>
</svg>
