<svg width="120" height="120" viewBox="0 0 120 120" fill="none" xmlns="http://www.w3.org/2000/svg">
<path d="M109.895 43.26C109.449 36.9559 106.635 31.0539 102.017 26.7393C97.3992 22.4247 91.3198 20.0171 85 20H35C28.5917 19.971 22.4199 22.4189 17.7735 26.8323C13.1271 31.2458 10.3654 37.2836 10.065 43.685C10.015 44.08 10 44.49 10 44.95V82.5C10 87.125 11.865 91.64 15.11 94.88C18.404 98.1525 22.8567 99.9925 27.5 100C34.645 100 39.12 94.695 43.445 89.565C45.035 87.68 46.675 85.73 48.445 84.05C49.63 82.92 53.955 80.815 56.14 80.295C57.4 80 62.605 80.005 63.845 80.29C66.04 80.81 70.365 82.92 71.55 84.045C73.32 85.73 74.96 87.68 76.55 89.565C80.88 94.695 85.355 100 92.5 100C97.125 100 101.64 98.135 104.88 94.89C108.153 91.5959 109.993 87.1433 110 82.5V45C110 44.525 109.98 44.1 109.93 43.7L109.895 43.26ZM100 82.5C100 84.485 99.205 86.42 97.81 87.815C96.3969 89.2142 94.4887 89.9994 92.5 90C90 90 87.31 86.81 84.195 83.115C82.515 81.13 80.61 78.87 78.45 76.805C75.565 74.06 69.345 71.315 66.145 70.56C64.065 70.075 61.4 70 60 70C58.6 70 55.935 70.075 53.85 70.565C50.66 71.315 44.44 74.06 41.555 76.81C39.39 78.87 37.49 81.125 35.81 83.115C32.69 86.81 30 90 27.5 90C25.515 90 23.58 89.205 22.185 87.81C20.7858 86.3968 20.0006 84.4887 20 82.5L19.955 45.11C20.005 44.855 20.035 44.595 20.045 44.335C20.1878 40.4712 21.8284 36.8146 24.6197 34.1391C27.4109 31.4636 31.1336 29.9792 35 30H85C92.835 30 99.385 36.125 99.9 43.6C99.9 43.9 99.925 44.2 99.95 44.2C99.95 44.52 99.935 44.685 100 45V82.5Z" fill="#3163F5"/>
<path d="M80 65C82.7614 65 85 62.7614 85 60C85 57.2385 82.7614 55 80 55C77.2386 55 75 57.2385 75 60C75 62.7614 77.2386 65 80 65Z" fill="url(#paint0_linear)"/>
<path d="M90 55C92.7614 55 95 52.7614 95 50C95 47.2386 92.7614 45 90 45C87.2386 45 85 47.2386 85 50C85 52.7614 87.2386 55 90 55Z" fill="url(#paint1_linear)"/>
<path d="M80 45C82.7614 45 85 42.7615 85 40C85 37.2386 82.7614 35 80 35C77.2386 35 75 37.2386 75 40C75 42.7615 77.2386 45 80 45Z" fill="url(#paint2_linear)"/>
<path d="M70 55C72.7614 55 75 52.7614 75 50C75 47.2386 72.7614 45 70 45C67.2386 45 65 47.2386 65 50C65 52.7614 67.2386 55 70 55Z" fill="url(#paint3_linear)"/>
<path d="M40 60C45.5228 60 50 55.5228 50 50C50 44.4771 45.5228 40 40 40C34.4772 40 30 44.4771 30 50C30 55.5228 34.4772 60 40 60Z" fill="url(#paint4_linear)"/>
<defs>
<linearGradient id="paint0_linear" x1="74.4828" y1="65" x2="85.2894" y2="64.6768" gradientUnits="userSpaceOnUse">
<stop stop-color="#DB5852"/>
<stop offset="1" stop-color="#FA7267"/>
</linearGradient>
<linearGradient id="paint1_linear" x1="84.4828" y1="55" x2="95.2894" y2="54.6768" gradientUnits="userSpaceOnUse">
<stop stop-color="#DB5852"/>
<stop offset="1" stop-color="#FA7267"/>
</linearGradient>
<linearGradient id="paint2_linear" x1="74.4828" y1="45" x2="85.2894" y2="44.6769" gradientUnits="userSpaceOnUse">
<stop stop-color="#DB5852"/>
<stop offset="1" stop-color="#FA7267"/>
</linearGradient>
<linearGradient id="paint3_linear" x1="64.4828" y1="55" x2="75.2894" y2="54.6769" gradientUnits="userSpaceOnUse">
<stop stop-color="#DB5852"/>
<stop offset="1" stop-color="#FA7267"/>
</linearGradient>
<linearGradient id="paint4_linear" x1="28.9655" y1="60" x2="50.5787" y2="59.3537" gradientUnits="userSpaceOnUse">
<stop stop-color="#DB5852"/>
<stop offset="1" stop-color="#FA7267"/>
</linearGradient>
</defs>
</svg>
