<svg width="120" height="120" viewBox="0 0 120 120" fill="none" xmlns="http://www.w3.org/2000/svg">
<rect x="18" y="40" width="85" height="18" fill="#F36C62"/>
<path d="M99.9999 35H93.9549C94.6883 32.5689 95.0408 30.039 94.9999 27.5C94.9999 17.85 87.1499 10 77.4999 10C69.3899 10 63.9749 17.41 60.4799 25.425C57.0349 17.85 51.3449 10 42.4999 10C32.8499 10 24.9999 17.85 24.9999 27.5C24.9999 30.48 25.3949 32.945 26.0449 35H19.9999C14.4849 35 9.99994 39.485 9.99994 45V55C9.99994 60.515 14.4849 65 19.9999 65V100C19.9999 105.515 24.4849 110 29.9999 110H89.9999C95.5149 110 99.9999 105.515 99.9999 100V65C105.515 65 110 60.515 110 55V45C110 39.485 105.515 35 99.9999 35ZM77.4999 20C81.6349 20 84.9999 23.365 84.9999 27.5C84.9999 35 81.8699 35 79.9999 35H67.6099C70.1649 27.12 73.8749 20 77.4999 20ZM34.9999 27.5C34.9999 23.365 38.3649 20 42.4999 20C46.9399 20 51.0699 27.625 53.4899 35H39.9999C38.1299 35 34.9999 35 34.9999 27.5ZM19.9999 45H54.9999V55H19.9999V45ZM29.9999 100V65H54.9999V100H29.9999ZM89.9999 100H64.9999V65H89.9999V100ZM64.9999 55V45.425L65.0849 45H99.9999L100.005 55H64.9999Z" fill="#3163F5"/>
</svg>
