<svg width="40" height="40" viewBox="0 0 40 40" fill="none" xmlns="http://www.w3.org/2000/svg">
<path d="M32.775 28.0182C32.3135 29.094 31.7433 30.1199 31.0733 31.0799C30.1783 32.3582 29.4433 33.2415 28.88 33.7332C28.005 34.5365 27.065 34.9499 26.06 34.9732C25.34 34.9732 24.47 34.7682 23.4567 34.3515C22.44 33.9365 21.5067 33.7332 20.6517 33.7332C19.7567 33.7332 18.7967 33.9365 17.7683 34.3515C16.7417 34.7682 15.9117 34.9865 15.2767 35.0065C14.315 35.0482 13.3533 34.6249 12.395 33.7332C11.7833 33.1999 11.0183 32.2832 10.1 30.9865C9.11668 29.6049 8.30834 27.9965 7.67501 26.1682C6.99668 24.1899 6.65668 22.2765 6.65668 20.4232C6.65668 18.3015 7.11501 16.4699 8.03334 14.9365C8.72792 13.7323 9.72092 12.7273 10.9167 12.0182C12.0958 11.311 13.4418 10.9302 14.8167 10.9149C15.5833 10.9149 16.5883 11.1515 17.8333 11.6182C19.0783 12.0849 19.8783 12.3215 20.2267 12.3215C20.49 12.3215 21.375 12.0432 22.8817 11.4915C24.3033 10.9799 25.5033 10.7682 26.4867 10.8515C29.1533 11.0665 31.155 12.1165 32.4867 14.0099C30.1033 15.4549 28.925 17.4765 28.9483 20.0715C28.9683 22.0932 29.7033 23.7749 31.1433 25.1099C31.78 25.7191 32.5228 26.2066 33.335 26.5482C33.1583 27.0599 32.9717 27.5482 32.775 28.0182ZM26.6633 3.96654C26.6633 5.54988 26.0833 7.02988 24.9317 8.39821C23.5383 10.0249 21.855 10.9665 20.03 10.8182C20.0061 10.6191 19.9945 10.4187 19.995 10.2182C19.995 8.69654 20.655 7.06988 21.8333 5.73821C22.42 5.06488 23.1667 4.50321 24.0717 4.05654C24.975 3.61654 25.8283 3.37321 26.6317 3.33154C26.6533 3.54488 26.6633 3.75654 26.6633 3.96654Z" fill="white"/>
</svg>
