<svg width="120" height="120" viewBox="0 0 120 120" fill="none" xmlns="http://www.w3.org/2000/svg">
<path d="M60 10C32.43 10 10 32.43 10 60C10 87.57 32.43 110 60 110C87.57 110 110 87.57 110 60C110 32.43 87.57 10 60 10ZM60 100C37.945 100 20 82.055 20 60C20 37.945 37.945 20 60 20C82.055 20 100 37.945 100 60C100 82.055 82.055 100 60 100Z" fill="#3163F5"/>
<path d="M74.14 74.1401C71.3802 76.9073 67.868 78.8024 64.04 79.5901C61.3732 80.125 58.6268 80.125 55.96 79.5901C54.6775 79.3238 53.4234 78.9354 52.215 78.4301C51.0287 77.9233 49.8922 77.3073 48.82 76.5901C46.6943 75.1408 44.8592 73.3058 43.41 71.1801L35.12 76.7651C36.195 78.3601 37.43 79.8601 38.785 81.2101C41.5671 84.0016 44.8726 86.2168 48.5123 87.7285C52.152 89.2403 56.0543 90.0189 59.9954 90.0198C63.9366 90.0208 67.8392 89.2439 71.4796 87.7339C75.12 86.2239 78.4266 84.0103 81.21 81.2201C82.57 79.8651 83.81 78.3651 84.88 76.7651L76.59 71.1801C75.875 72.2351 75.055 73.2301 74.14 74.1401Z" fill="url(#paint0_linear)"/>
<path d="M42.5 60C46.6421 60 50 56.6421 50 52.5C50 48.3579 46.6421 45 42.5 45C38.3579 45 35 48.3579 35 52.5C35 56.6421 38.3579 60 42.5 60Z" fill="#3163F5"/>
<path d="M77.5 50C67.5 50 65 60 65 60H90C90 60 87.495 50 77.5 50Z" fill="#3163F5"/>
<defs>
<linearGradient id="paint0_linear" x1="32.5462" y1="90.0198" x2="86.0343" y2="85.7954" gradientUnits="userSpaceOnUse">
<stop stop-color="#DB5852"/>
<stop offset="1" stop-color="#FA7267"/>
</linearGradient>
</defs>
</svg>
