<svg width="120" height="120" viewBox="0 0 120 120" fill="none" xmlns="http://www.w3.org/2000/svg">
<path d="M77.83 55.105C83.0538 52.0033 87.3825 47.5982 90.3923 42.3209C93.4021 37.0437 94.9898 31.0752 95 25V20H100V10H20V20H25V25C25.0101 31.0752 26.5979 37.0437 29.6077 42.3209C32.6175 47.5982 36.9462 52.0033 42.17 55.105C43.94 56.145 45 57.83 45 59.605V60.395C45 62.165 43.94 63.845 42.17 64.895C36.9462 67.9967 32.6175 72.4018 29.6077 77.6791C26.5979 82.9563 25.0101 88.9248 25 95V100H20V110H100V100H95V95C94.9905 88.9259 93.4035 82.9584 90.3946 77.682C87.3856 72.4056 83.0578 68.0011 77.835 64.9C76.06 63.85 75 62.165 75 60.395V59.605C75 57.83 76.06 56.145 77.83 55.105ZM72.755 73.51C76.4818 75.7254 79.5696 78.8706 81.7161 82.6376C83.8625 86.4046 84.9941 90.6644 85 95V100H35V95C35.0065 90.6633 36.1389 86.4025 38.2862 82.6347C40.4335 78.8668 43.5221 75.721 47.25 73.505C52.105 70.64 55 65.735 55 60.395V59.605C55 54.26 52.1 49.35 47.245 46.49C43.5181 44.2746 40.4304 41.1294 38.2839 37.3624C36.1375 33.5954 35.0059 29.3356 35 25V20H85V25C85 33.8 80.31 42.03 72.755 46.49C67.9 49.35 65 54.26 65 59.605V60.395C65 65.735 67.895 70.64 72.755 73.51Z" fill="#3163F5"/>
<circle cx="60" cy="33" r="6" fill="url(#paint0_linear)"/>
<circle cx="60" cy="87" r="6" fill="url(#paint1_linear)"/>
<defs>
<linearGradient id="paint0_linear" x1="53.3793" y1="39" x2="66.3472" y2="38.6122" gradientUnits="userSpaceOnUse">
<stop stop-color="#DB5852"/>
<stop offset="1" stop-color="#FA7267"/>
</linearGradient>
<linearGradient id="paint1_linear" x1="53.3793" y1="93" x2="66.3472" y2="92.6122" gradientUnits="userSpaceOnUse">
<stop stop-color="#DB5852"/>
<stop offset="1" stop-color="#FA7267"/>
</linearGradient>
</defs>
</svg>
