<svg width="120" height="120" viewBox="0 0 120 120" fill="none" xmlns="http://www.w3.org/2000/svg">
<path d="M50 65L45 90H55V110L74.875 80H65L70 65H50Z" fill="url(#paint0_linear)"/>
<path d="M94.7199 50.56C92.535 33.35 77.7999 20 59.9999 20C46.2199 20 34.2499 28.055 28.7849 40.75C18.0449 43.96 9.99994 54.095 9.99994 65C9.99994 78.785 21.2149 90 34.9999 90V80C26.7299 80 19.9999 73.27 19.9999 65C19.9999 57.985 25.9949 51.22 33.3649 49.925L36.2699 49.41L37.2299 46.615C40.7449 36.365 49.4749 30 59.9999 30C73.7849 30 84.9999 41.215 84.9999 55V60H89.9999C95.5149 60 99.9999 64.485 99.9999 70C99.9999 75.515 95.5149 80 89.9999 80H84.9999V90H89.9999C101.03 90 110 81.03 110 70C109.994 65.5176 108.486 61.1666 105.716 57.6425C102.946 54.1184 99.0741 51.6247 94.7199 50.56Z" fill="#3163F5"/>
<defs>
<linearGradient id="paint0_linear" x1="43.4547" y1="110" x2="75.7556" y2="109.359" gradientUnits="userSpaceOnUse">
<stop stop-color="#DB5852"/>
<stop offset="1" stop-color="#FA7267"/>
</linearGradient>
</defs>
</svg>
