<svg width="120" height="120" viewBox="0 0 120 120" fill="none" xmlns="http://www.w3.org/2000/svg">
<path d="M60 30C77.685 30 94.185 36.765 106.465 49.045L113.535 41.975C99.37 27.805 80.355 20 60 20C39.645 20.005 20.63 27.805 6.46497 41.975L13.535 49.045C25.815 36.765 42.315 30 60 30ZM88.355 71.535C72.985 56.165 47.015 56.165 31.645 71.535L38.715 78.605C50.25 67.07 69.75 67.07 81.285 78.605L88.355 71.535Z" fill="#3163F5"/>
<path d="M102.185 56.465C79.325 33.595 40.6799 33.595 17.8199 56.465L24.8899 63.535C43.9249 44.5 76.08 44.5 95.115 63.535L102.185 56.465Z" fill="#3163F5"/>
<path d="M60 100C65.5228 100 70 95.5228 70 90C70 84.4771 65.5228 80 60 80C54.4772 80 50 84.4771 50 90C50 95.5228 54.4772 100 60 100Z" fill="url(#paint0_linear)"/>
<defs>
<linearGradient id="paint0_linear" x1="48.9655" y1="100" x2="70.5787" y2="99.3537" gradientUnits="userSpaceOnUse">
<stop stop-color="#DB5852"/>
<stop offset="1" stop-color="#FA7267"/>
</linearGradient>
</defs>
</svg>
