<svg width="120" height="120" viewBox="0 0 120 120" fill="none" xmlns="http://www.w3.org/2000/svg">
<path d="M79.995 42.5H89.995C89.995 28.315 76.22 21.845 64.995 20.355V10H54.995V20.355C43.77 21.845 29.995 28.315 29.995 42.5C29.995 56.03 43.325 63.065 54.995 64.65V89.5C47.755 88.245 39.995 84.38 39.995 77.5H29.995C29.995 90.445 42.12 98.095 54.995 99.68V110H64.995V99.65C76.22 98.16 89.995 91.685 89.995 77.5C89.995 63.315 76.22 56.845 64.995 55.355V30.5C71.645 31.695 79.995 35.205 79.995 42.5ZM39.995 42.5C39.995 35.205 48.345 31.695 54.995 30.5V54.495C48.14 53.23 39.995 49.485 39.995 42.5ZM79.995 77.5C79.995 84.795 71.645 88.305 64.995 89.5V65.5C71.645 66.695 79.995 70.205 79.995 77.5Z" fill="#3163F5"/>
<rect x="54" y="9" width="12" height="102" fill="url(#paint0_linear)"/>
<defs>
<linearGradient id="paint0_linear" x1="53.3793" y1="111" x2="66.3587" y2="110.954" gradientUnits="userSpaceOnUse">
<stop stop-color="#DB5852"/>
<stop offset="1" stop-color="#FA7267"/>
</linearGradient>
</defs>
</svg>
