<svg width="120" height="120" viewBox="0 0 120 120" fill="none" xmlns="http://www.w3.org/2000/svg">
<path d="M104.58 47.82C104.844 47.2196 104.987 46.573 105.001 45.9172C105.015 45.2614 104.9 44.6093 104.662 43.9982C104.423 43.387 104.067 42.8289 103.613 42.3556C103.159 41.8823 102.616 41.5032 102.015 41.24L36.6399 12.46C31.6649 10.27 25.5399 12.715 23.4149 17.67L12.3649 43.44C11.3254 45.8776 11.2954 48.6281 12.2815 51.0878C13.2677 53.5475 15.1894 55.5156 17.6249 56.56L47.8149 69.5L41.6149 85H19.9999V70H9.99994V110H19.9999V95H41.6149C45.7299 95 49.3749 92.53 50.8949 88.71L57.0049 73.44L83.03 84.59C84.242 85.11 85.6104 85.1302 86.8372 84.646C88.064 84.1619 89.0498 83.2126 89.5799 82.005L91.14 78.455L99.645 81.855L109.645 56.855L101.965 53.79L104.58 47.82ZM82.41 73.45L21.5649 47.375L32.6049 21.615L93.4149 48.385L82.41 73.45Z" fill="#3163F5"/>
<ellipse cx="81" cy="57" rx="6" ry="6" fill="url(#paint0_linear)"/>
<defs>
<linearGradient id="paint0_linear" x1="74.3793" y1="63" x2="87.3472" y2="62.6122" gradientUnits="userSpaceOnUse">
<stop stop-color="#DB5852"/>
<stop offset="1" stop-color="#FA7267"/>
</linearGradient>
</defs>
</svg>
