<svg width="30" height="31" viewBox="0 0 30 31" fill="none" xmlns="http://www.w3.org/2000/svg">
<path d="M26.1838 11.2121C26.1712 10.2654 25.9939 9.3281 25.66 8.44213C25.3705 7.69482 24.9282 7.01613 24.3615 6.44942C23.7948 5.88271 23.1161 5.44044 22.3688 5.15088C21.4942 4.82258 20.5703 4.64506 19.6363 4.62588C18.4338 4.57213 18.0525 4.55713 15 4.55713C11.9475 4.55713 11.5563 4.55713 10.3625 4.62588C9.42898 4.6452 8.50546 4.82271 7.63128 5.15088C6.88385 5.44024 6.20505 5.88243 5.63832 6.44917C5.07158 7.01591 4.62939 7.6947 4.34003 8.44213C4.01107 9.31604 3.83393 10.2398 3.81628 11.1734C3.76253 12.3771 3.74628 12.7584 3.74628 15.8109C3.74628 18.8634 3.74628 19.2534 3.81628 20.4484C3.83503 21.3834 4.01128 22.3059 4.34003 23.1821C4.62987 23.9293 5.0724 24.6079 5.63932 25.1743C6.20625 25.7408 6.88511 26.1829 7.63253 26.4721C8.50432 26.8136 9.42799 27.0039 10.3638 27.0346C11.5675 27.0884 11.9488 27.1046 15.0013 27.1046C18.0538 27.1046 18.445 27.1046 19.6388 27.0346C20.5727 27.0162 21.4967 26.8391 22.3713 26.5109C23.1184 26.221 23.7969 25.7786 24.3636 25.2119C24.9302 24.6453 25.3726 23.9667 25.6625 23.2196C25.9913 22.3446 26.1675 21.4221 26.1863 20.4859C26.24 19.2834 26.2563 18.9021 26.2563 15.8484C26.2538 12.7959 26.2538 12.4084 26.1838 11.2121ZM14.9925 21.5834C11.8 21.5834 9.21378 18.9971 9.21378 15.8046C9.21378 12.6121 11.8 10.0259 14.9925 10.0259C16.5251 10.0259 17.995 10.6347 19.0787 11.7184C20.1624 12.8022 20.7713 14.272 20.7713 15.8046C20.7713 17.3372 20.1624 18.8071 19.0787 19.8908C17.995 20.9745 16.5251 21.5834 14.9925 21.5834ZM21.0013 11.1596C20.255 11.1596 19.6538 10.5571 19.6538 9.81213C19.6538 9.63525 19.6886 9.46011 19.7563 9.2967C19.824 9.13329 19.9232 8.98481 20.0483 8.85974C20.1733 8.73468 20.3218 8.63547 20.4852 8.56778C20.6486 8.50009 20.8238 8.46525 21.0007 8.46525C21.1775 8.46525 21.3527 8.50009 21.5161 8.56778C21.6795 8.63547 21.828 8.73468 21.953 8.85974C22.0781 8.98481 22.1773 9.13329 22.245 9.2967C22.3127 9.46011 22.3475 9.63525 22.3475 9.81213C22.3475 10.5571 21.745 11.1596 21.0013 11.1596Z" fill="white"/>
<path d="M14.9925 19.5588C17.0657 19.5588 18.7463 17.8782 18.7463 15.805C18.7463 13.7319 17.0657 12.0513 14.9925 12.0513C12.9194 12.0513 11.2388 13.7319 11.2388 15.805C11.2388 17.8782 12.9194 19.5588 14.9925 19.5588Z" fill="white"/>
</svg>
