<svg width="120" height="120" viewBox="0 0 120 120" fill="none" xmlns="http://www.w3.org/2000/svg">
<path d="M15 40V95C15 106.005 23.97 110 30 110H105V100H30.06C27.75 99.94 25 99.03 25 95C25 90.97 27.75 90.06 30.06 90H105V20C105 14.485 100.515 10 95 10H30C23.97 10 15 13.995 15 25V40ZM30 20H95V80H25V25C25 20.97 27.75 20.06 30 20Z" fill="#3163F5"/>
<path d="M46.0938 74V71.625L60.5938 50.2812C63.4896 46.0104 64.9375 42.4167 64.9375 39.5C64.9375 36.0417 62.8646 34.3125 58.7188 34.3125C55.5521 34.3125 53 35.9896 51.0625 39.3438L45.5938 35.0312C46.6771 32.8438 48.375 31.0312 50.6875 29.5938C53.0208 28.1354 55.5938 27.4062 58.4062 27.4062C63.0938 27.4062 66.7604 28.4792 69.4062 30.625C72.0521 32.75 73.375 35.7083 73.375 39.5C73.375 42.9792 71.6771 47.3125 68.2812 52.5L58.9062 66.7812H76.0938V74H46.0938Z" fill="url(#paint0_linear)"/>
<defs>
<linearGradient id="paint0_linear" x1="39.0345" y1="95.9999" x2="80.1298" y2="95.4811" gradientUnits="userSpaceOnUse">
<stop stop-color="#DB5852"/>
<stop offset="1" stop-color="#FA7267"/>
</linearGradient>
</defs>
</svg>
