<svg width="120" height="120" viewBox="0 0 120 120" fill="none" xmlns="http://www.w3.org/2000/svg">
<path d="M15 40V95C15 106.005 23.97 110 30 110H105V100H30.06C27.75 99.94 25 99.03 25 95C25 90.97 27.75 90.06 30.06 90H105V20C105 14.485 100.515 10 95 10H30C23.97 10 15 13.995 15 25V40ZM30 20H95V80H25V25C25 20.97 27.75 20.06 30 20Z" fill="#3163F5"/>
<path d="M45.7188 70.1562L49.7812 63.875C52.1979 66.4375 54.8229 67.7188 57.6562 67.7188C62.8229 67.7188 65.4062 65.2917 65.4062 60.4375C65.4062 58.2292 64.6562 56.4375 63.1562 55.0625C61.6562 53.6667 59.6354 52.9688 57.0938 52.9688H55.6562V46.2812H56.875C61.5417 46.2812 63.875 44.3333 63.875 40.4375C63.875 36.3542 61.6979 34.3125 57.3438 34.3125C55.0938 34.3125 52.9062 35.375 50.7812 37.5L46.9688 31.9062C47.9479 30.6979 49.4792 29.6458 51.5625 28.75C53.6458 27.8542 55.7292 27.4062 57.8125 27.4062C62.375 27.4062 65.9271 28.4479 68.4688 30.5312C71.0312 32.6146 72.3125 35.5312 72.3125 39.2812C72.3125 43.7396 70.3958 47.1354 66.5625 49.4688C71.4167 51.8021 73.8438 55.6146 73.8438 60.9062C73.8438 65.2604 72.3958 68.6354 69.5 71.0312C66.625 73.4271 62.6458 74.625 57.5625 74.625C52.9375 74.625 48.9896 73.1354 45.7188 70.1562Z" fill="url(#paint0_linear)"/>
<defs>
<linearGradient id="paint0_linear" x1="39.0345" y1="95.9999" x2="80.1298" y2="95.4811" gradientUnits="userSpaceOnUse">
<stop stop-color="#DB5852"/>
<stop offset="1" stop-color="#FA7267"/>
</linearGradient>
</defs>
</svg>
