<svg width="1432" height="2505" viewBox="0 0 1432 2505" fill="none" xmlns="http://www.w3.org/2000/svg">
<path fill-rule="evenodd" clip-rule="evenodd" d="M-108.622 234.199C-137.8 232.156 -239.415 196.368 -264.86 169.352C-293.758 138.67 -294.376 88.3865 -266.421 57.0158C-238.851 25.7211 -192.765 24.964 -164.322 55.2977C-140.317 80.8992 -106.048 183.468 -100.803 220.286C-68.6461 257.95 -34.0646 302.941 2.78958 354.981C-11.5208 311.507 -24.6807 257.57 -21.8885 232.784C-17.2247 188.034 19.815 156.187 60.5559 161.743C101.297 167.299 130.172 207.629 125.122 252.454C120.81 289.86 65.7376 383.621 41.6571 411.226C76.1461 462.294 112.426 518.97 150.387 581.054C133.899 534.893 116.346 468.568 119.458 440.286C124.825 394.96 162.182 362.612 203.309 368.092C244.89 373.921 274.221 414.599 268.923 460.35C264.075 502.225 198.663 610.75 178.555 627.599C219.971 696.721 263.274 771.957 308.329 853.059C288.113 786.478 265.413 673.206 273.686 629.035C285.618 565.32 342.353 524.77 399.806 537.55C457.328 550.756 494.5 612.679 482.568 676.394C471.446 735.777 363.6 885.425 335.593 902.461C378.314 980.375 422.54 1063.36 468.162 1151.22C447.207 1072.2 426.032 947.975 436.35 898.957C451.918 825.76 518.59 780.182 585.888 797.158C652.415 814.286 693.839 887.644 678.341 961.266C663.767 1028.89 538.157 1195.14 502.752 1218.25C544.936 1300.49 588.254 1386.73 632.625 1476.82C624.578 1378.98 628.307 1202.12 654.806 1142.1C691.475 1059.05 782.252 1024.5 857.738 1064.84C933.223 1105.19 964.625 1205.07 927.957 1288.12C895.876 1360.79 720.851 1510.61 663.227 1539.22C707.089 1629.04 751.94 1722.52 797.703 1819.5C789.274 1722.44 792.772 1542.04 819.59 1481.3C856.258 1398.25 947.421 1363.62 1022.52 1404.04C1098.01 1444.38 1129.41 1544.26 1092.74 1627.32C1060.26 1700.9 881.207 1853.59 825.891 1879.44C877.454 1989.44 930.136 2103.78 983.829 2222.28C1000.98 2140.29 1077.3 1938.82 1128.5 1888.51C1191 1827.1 1287.19 1833.12 1343 1901.89C1398.82 1970.66 1393.35 2076.49 1330.85 2137.9C1273.58 2194.17 1041.8 2263.13 991.113 2259.17C991.091 2259.18 991.069 2259.19 991.047 2259.2C990.999 2259.21 990.953 2259.23 990.908 2259.25C990.859 2259.26 990.812 2259.27 990.765 2259.29C990.676 2259.31 990.59 2259.33 990.505 2259.34L990.482 2259.35C957.99 2296.89 736.726 2411.87 658.865 2409.75C574.838 2407.47 508.239 2331.18 510.7 2238.65C513.16 2146.13 582.948 2073.2 666.589 2075.56C733.427 2077.44 903.181 2172.39 968.407 2223.72C915.391 2106.79 863.372 1993.93 812.451 1885.32C767.547 1935.35 579.867 2064.09 507.055 2071.94C423.738 2081.35 349.052 2014.11 340.815 1921.94C332.26 1830.27 393.44 1748.52 476.758 1739.11C543.442 1731.92 722.92 1802.56 793.314 1844.6C744.245 1740.4 696.22 1640.21 649.334 1544.22C607.618 1592.72 415.964 1724.42 342.272 1732.75C258.955 1742.16 184.269 1674.92 176.032 1582.75C167.477 1491.07 228.588 1408.9 311.975 1399.91C379.48 1392.64 562.576 1465.12 631.083 1506.94C581.789 1406.53 533.785 1310.83 487.181 1220.05C451.027 1255.39 283.647 1345.7 222.667 1345.63C154.137 1345.56 98.7266 1284.16 98.7281 1208.33C98.7987 1132.93 154.6 1071.97 223.13 1072.04C276.795 1072.44 412.393 1143.32 468.85 1184.45C418.481 1086.96 369.793 995.351 322.93 909.878C288.562 946.581 161.051 1034.5 110.8 1040.28C52.1447 1047.02 -0.460051 1000.41 -6.65658 935.446C-12.784 870.909 29.5776 813.029 88.2331 806.288C132.963 801.147 249.92 845.489 303.738 875.033C256.591 789.825 211.352 711.006 168.174 638.856C139.067 666.652 57.0278 722.364 23.3967 726.149C-17.6141 731.166 -54.8539 698.183 -59.4823 652.636C-63.6557 607.437 -34.0649 566.539 7.40102 561.871C35.9452 558.36 105.91 583.568 147.029 603.786C105.471 535.381 65.9077 473.398 28.4818 418.101C11.7193 439.973 -85.17 508.357 -122.146 512.46C-162.84 516.976 -199.169 484.691 -203.204 440.341C-207.308 395.567 -178.034 355.17 -137.34 350.654C-104.748 347.037 -17.2418 380.951 16.9823 401.222C-28.1818 335.379 -70.1365 279.545 -108.622 234.199Z" fill="url(#paint0_linear)"/>
<defs>
<linearGradient id="paint0_linear" x1="-1040.6" y1="-156.534" x2="1133.84" y2="2089.64" gradientUnits="userSpaceOnUse">
<stop stop-color="#CFE3FF" stop-opacity="0.56"/>
<stop offset="1" stop-color="#CFE3FF" stop-opacity="0.06"/>
</linearGradient>
</defs>
</svg>
