<svg width="366" height="432" viewBox="0 0 366 432" fill="none" xmlns="http://www.w3.org/2000/svg">
<path d="M156.336 413.764C156.405 413.764 156.405 413.694 156.474 413.694C156.885 413.482 157.022 412.917 156.748 412.564C97.0222 308.108 48.1993 236.07 19.125 209.727C18.5079 209.162 18.0278 208.738 17.8221 208.526C17.5479 208.173 16.9993 208.173 16.6564 208.455C16.3136 208.738 16.3136 209.303 16.5879 209.656C16.8622 209.938 17.2736 210.362 18.0279 211.068C46.8965 237.341 95.6508 309.238 155.308 413.552C155.582 413.764 155.994 413.906 156.336 413.764Z" fill="#4851EC"/>
<path d="M2.87362 207.679C6.23361 210.575 20.6336 213.895 21.4564 212.906C22.2793 211.917 16.5879 197.933 13.2279 195.037C9.86791 192.141 4.79364 192.565 1.91365 196.026C-0.966333 199.557 -0.554932 204.784 2.87362 207.679Z" fill="#4851EC"/>
<path d="M30.1649 212.269C29.9592 216.931 36.1306 231.056 37.4335 231.126C38.7363 231.197 46.2792 217.778 46.5535 213.187C46.7592 208.526 43.3306 204.571 38.8049 204.289C34.2106 204.077 30.3706 207.679 30.1649 212.269Z" fill="#4851EC"/>
<path d="M21.0451 242.003C25.5022 241.156 37.4337 231.762 37.228 230.491C37.0222 229.149 22.6222 224.558 18.1651 225.406C13.7079 226.253 10.7594 230.632 11.5137 235.223C12.3365 239.814 16.5879 242.851 21.0451 242.003Z" fill="#4851EC"/>
<path d="M85.5023 277.528C84.268 285.226 92.1537 309.945 94.2794 310.298C96.4052 310.651 111.422 289.746 112.657 281.977C113.891 274.279 108.748 267.005 101.274 265.734C93.7309 264.604 86.7366 269.83 85.5023 277.528Z" fill="#4851EC"/>
<path d="M65.0677 325.482C72.6791 324.988 94.2791 311.498 94.1419 309.238C94.0048 306.978 70.8277 296.666 63.2163 297.161C55.6049 297.655 49.9135 304.435 50.3935 312.275C50.9421 320.114 57.5249 325.977 65.0677 325.482Z" fill="#4851EC"/>
<path d="M111.354 300.905C107.925 309.803 110.805 341.514 113.274 342.503C115.742 343.491 139.125 322.728 142.554 313.829C145.982 304.93 141.8 294.831 133.228 291.3C124.657 287.698 114.851 292.006 111.354 300.905Z" fill="#4851EC"/>
<path d="M81.0449 364.538C90.2335 362.914 114.851 343.703 114.439 341.02C113.959 338.336 84.5421 328.731 75.3535 330.355C66.165 331.98 60.0621 340.949 61.6392 350.413C63.1478 359.806 71.8564 366.162 81.0449 364.538Z" fill="#4851EC"/>
<path d="M131.994 334.663C128.565 343.562 131.445 375.273 133.914 376.261C136.382 377.25 159.765 356.486 163.194 347.587C166.622 338.689 162.439 328.589 153.868 325.058C145.228 321.456 135.422 325.764 131.994 334.663Z" fill="#4851EC"/>
<path d="M101.616 398.297C110.805 396.673 135.422 377.463 135.011 374.779C134.531 372.095 105.114 362.49 95.9251 364.114C86.7365 365.739 80.6336 374.708 82.2108 384.172C83.7879 393.565 92.4965 399.921 101.616 398.297Z" fill="#4851EC"/>
<path d="M169.022 374.285C162.508 381.136 153.525 411.575 155.445 413.481C157.365 415.388 186.645 405.289 193.159 398.438C199.674 391.588 199.536 380.641 192.816 373.932C186.165 367.293 175.468 367.435 169.022 374.285Z" fill="#4851EC"/>
<path d="M120.748 431.985C130.005 431.562 156.817 415.671 156.679 412.987C156.542 410.233 128.497 396.955 119.171 397.379C109.914 397.803 102.714 405.925 103.125 415.459C103.605 425.064 111.491 432.409 120.748 431.985Z" fill="#4851EC"/>
<path d="M47.2395 232.68C47.0338 237.412 53.2737 251.749 54.6451 251.82C55.948 251.89 63.628 238.259 63.9023 233.527C64.108 228.795 60.6108 224.77 56.0166 224.487C51.4223 224.275 47.5138 227.948 47.2395 232.68Z" fill="#4851EC"/>
<path d="M38.668 262.979C43.1938 262.131 55.3309 252.596 55.1252 251.254C54.9195 249.912 40.3137 245.251 35.788 246.098C31.2623 246.946 28.2451 251.396 29.068 256.057C29.8223 260.719 34.1423 263.826 38.668 262.979Z" fill="#4851EC"/>
<path d="M65.6164 250.901C64.725 257.54 72.0621 278.658 73.9135 278.87C75.765 279.152 88.1764 260.789 89.0678 254.15C89.9592 247.511 85.3649 241.367 78.9192 240.449C72.4735 239.601 66.5078 244.262 65.6164 250.901Z" fill="#4851EC"/>
<path d="M50.5307 294.76C56.9764 293.56 74.2564 279.999 73.9135 278.092C73.5707 276.185 52.8621 269.547 46.4164 270.747C39.9707 271.948 35.7193 278.234 36.8164 284.873C37.9821 291.511 44.1535 295.961 50.5307 294.76Z" fill="#4851EC"/>
<path d="M287.994 413.057C288.062 413.057 288.199 413.057 288.268 412.987C288.954 412.775 289.365 411.998 289.159 411.221C229.845 219.897 176.565 85.0018 139.056 31.3971C138.234 30.1964 137.616 29.3489 137.411 28.9252C137.068 28.2189 136.245 28.007 135.559 28.3601C134.874 28.7133 134.668 29.5608 135.011 30.2671C135.354 30.8321 135.902 31.6796 136.862 33.0215C174.165 86.3438 227.377 221.027 286.554 412.069C286.759 412.775 287.377 413.128 287.994 413.057Z" fill="#060633"/>
<path d="M113.342 22.0042C117.799 28.0074 139.81 38.8131 141.456 37.4712C143.102 36.2 138.919 11.4104 134.462 5.40724C130.005 -0.59593 121.708 -1.79653 115.879 2.79413C109.982 7.45541 108.885 16.0011 113.342 22.0042Z" fill="#060633"/>
<path d="M155.788 39.8017C153.731 47.2175 158.736 72.4312 160.793 72.9962C162.851 73.5612 179.856 54.8451 181.913 47.3587C183.97 39.9429 179.719 32.174 172.519 30.1258C165.319 28.0777 157.776 32.3153 155.788 39.8017Z" fill="#060633"/>
<path d="M130.485 84.3665C137.959 84.7196 160.656 74.0551 160.725 71.8657C160.793 69.6763 139.262 56.8222 131.719 56.4691C124.245 56.116 117.868 62.0486 117.525 69.7469C117.182 77.4452 122.942 84.0134 130.485 84.3665Z" fill="#060633"/>
<path d="M221.959 166.151C217.228 178.157 221.136 221.097 224.496 222.51C227.856 223.922 259.536 195.743 264.268 183.736C268.999 171.73 263.308 158.029 251.651 153.156C239.925 148.282 226.691 154.074 221.959 166.151Z" fill="#060633"/>
<path d="M171.902 235.858C184.313 237.836 224.085 224.276 224.633 220.603C225.182 216.931 191.445 191.435 178.965 189.458C166.553 187.48 154.896 196.167 152.908 209.021C150.988 221.804 159.491 233.81 171.902 235.858Z" fill="#060633"/>
<path d="M255.491 213.682C246.713 226.748 240.199 279.081 243.765 281.624C247.399 284.166 292.588 259.377 301.365 246.311C310.142 233.245 306.919 215.377 294.302 206.337C281.616 197.368 264.268 200.616 255.491 213.682Z" fill="#060633"/>
<path d="M183.765 305C199.125 305.848 245.822 284.166 246.096 279.646C246.302 275.126 202.142 248.501 186.713 247.653C171.354 246.806 158.188 258.953 157.365 274.843C156.611 290.663 168.405 304.153 183.765 305Z" fill="#060633"/>
<path d="M276.748 276.044C267.971 289.11 261.456 341.444 265.022 343.986C268.656 346.529 313.845 321.739 322.622 308.673C331.399 295.608 328.176 277.739 315.559 268.699C302.873 259.73 285.525 262.979 276.748 276.044Z" fill="#060633"/>
<path d="M205.022 367.364C220.382 368.211 267.079 346.529 267.354 342.009C267.559 337.489 223.399 310.863 207.971 310.015C192.611 309.168 179.445 321.316 178.622 337.206C177.868 353.027 189.662 366.516 205.022 367.364Z" fill="#060633"/>
<path d="M322.485 354.086C309.593 362.702 284.153 408.538 286.553 412.352C288.953 416.165 339.902 410.939 352.862 402.323C365.753 393.706 369.456 375.909 361.091 362.561C352.656 349.212 335.376 345.399 322.485 354.086Z" fill="#060633"/>
<path d="M224.016 429.089C239.17 431.914 288.13 416.377 288.885 411.928C289.639 407.478 249.045 375.344 233.89 372.519C218.736 369.694 204.199 380.076 201.525 395.684C198.713 411.363 208.793 426.264 224.016 429.089Z" fill="#060633"/>
<path d="M176.222 79.1403C174.165 86.6971 179.239 112.263 181.296 112.899C183.422 113.534 200.702 94.4658 202.759 86.909C204.816 79.3522 200.565 71.513 193.228 69.3942C185.891 67.2049 178.279 71.5835 176.222 79.1403Z" fill="#060633"/>
<path d="M151.468 124.905C159.079 125.258 182.119 114.453 182.256 112.193C182.393 109.933 160.45 96.8674 152.839 96.5143C145.228 96.1612 138.782 102.164 138.37 110.004C138.028 117.843 143.856 124.552 151.468 124.905Z" fill="#060633"/>
<path d="M199.399 115.583C195.628 126.036 199.879 162.832 202.828 163.962C205.708 165.092 232.382 140.161 236.153 129.708C239.925 119.256 234.782 107.602 224.633 103.718C214.416 99.8335 203.171 105.13 199.399 115.583Z" fill="#060633"/>
<path d="M159.354 180.771C170.188 181.336 202.896 165.868 203.034 162.69C203.171 159.512 172.039 140.937 161.205 140.443C150.371 139.878 141.182 148.494 140.702 159.653C140.222 170.742 148.588 180.206 159.354 180.771Z" fill="#060633"/>
</svg>
