<svg width="76" height="85" viewBox="0 0 76 85" fill="none" xmlns="http://www.w3.org/2000/svg">
<path d="M4.2 76.8C4.96533 76.8 5.54867 76.9633 5.95 77.29C6.35133 77.6073 6.552 78.0693 6.552 78.676C6.552 79.4133 6.272 79.9873 5.712 80.398C5.152 80.7993 4.36333 81 3.346 81H1.246L1.316 78.9L1.246 73.958H6.188L6.244 74.07L6.174 75.078L4.312 75.05H2.618L2.59 76.8H4.2ZM3.78 80.048C4.20933 79.992 4.536 79.8613 4.76 79.656C4.99333 79.4507 5.11 79.18 5.11 78.844C5.11 78.4893 4.99333 78.2187 4.76 78.032C4.52667 77.836 4.19067 77.7427 3.752 77.752L2.576 77.766L2.562 78.774L2.59 79.992L3.78 80.048ZM8.52108 78.9L8.45108 74L9.83708 73.93L9.75308 78.9H9.85108L13.1411 73.958H14.6111L14.5411 78.774L14.5831 81H13.2111L13.2811 78.9V76.058H13.1691L9.87908 81H8.45108L8.52108 78.9ZM20.0627 76.8C20.828 76.8 21.4113 76.9633 21.8127 77.29C22.214 77.6073 22.4147 78.0693 22.4147 78.676C22.4147 79.4133 22.1347 79.9873 21.5747 80.398C21.0147 80.7993 20.226 81 19.2087 81H17.1087L17.1787 78.9L17.1087 73.958H22.0507L22.1067 74.07L22.0367 75.078L20.1747 75.05H18.4807L18.4527 76.8H20.0627ZM19.6427 80.048C20.072 79.992 20.3987 79.8613 20.6227 79.656C20.856 79.4507 20.9727 79.18 20.9727 78.844C20.9727 78.4893 20.856 78.2187 20.6227 78.032C20.3893 77.836 20.0533 77.7427 19.6147 77.752L18.4387 77.766L18.4247 78.774L18.4527 79.992L19.6427 80.048ZM29.0484 78.774L29.0904 81H27.7184L27.7884 78.9L27.7324 75.008H26.1644L26.1084 75.498C25.959 76.9353 25.7864 78.046 25.5904 78.83C25.4037 79.614 25.1657 80.1833 24.8764 80.538C24.5964 80.8833 24.223 81.084 23.7564 81.14L23.3784 81.168L23.1404 80.048C23.5137 79.9453 23.8077 79.7447 24.0224 79.446C24.237 79.138 24.4144 78.662 24.5544 78.018C24.6944 77.374 24.8204 76.45 24.9324 75.246L25.0584 73.986L25.0444 73.958H29.1184L29.0484 78.774ZM31.6041 78.9L31.5341 74L32.9201 73.93L32.8361 78.9H32.9341L36.2241 73.958H37.6941L37.6241 78.774L37.6661 81H36.2941L36.3641 78.9V76.058H36.2521L32.9621 81H31.5341L31.6041 78.9ZM42.7863 73.888C43.813 73.888 44.6063 74.1913 45.1663 74.798C45.7356 75.3953 46.0203 76.24 46.0203 77.332C46.0203 78.5453 45.717 79.4787 45.1103 80.132C44.513 80.7853 43.659 81.112 42.5483 81.112C41.5123 81.112 40.7143 80.804 40.1543 80.188C39.5943 79.572 39.3143 78.6993 39.3143 77.57C39.3143 76.394 39.613 75.4887 40.2103 74.854C40.817 74.21 41.6756 73.888 42.7863 73.888ZM42.6603 74.994C41.9883 74.994 41.4936 75.1853 41.1763 75.568C40.8683 75.9413 40.7143 76.5527 40.7143 77.402C40.7143 78.3447 40.8683 79.0167 41.1763 79.418C41.4843 79.8193 41.9743 80.02 42.6463 80.02C43.3276 80.02 43.827 79.8333 44.1443 79.46C44.4616 79.0773 44.6203 78.4567 44.6203 77.598C44.6203 76.6647 44.4663 75.9973 44.1583 75.596C43.8503 75.1947 43.351 74.994 42.6603 74.994ZM53.4069 78.774L53.4489 81H52.0909L52.1469 78.9L52.1049 75.022H49.1929L49.1369 78.774L49.1789 81H47.8209L47.8769 78.9L47.8209 73.958H53.4769L53.4069 78.774ZM61.4323 81H60.0743L59.8923 80.132L59.6403 79.362L58.0723 79.348L56.6723 79.362L56.4063 80.062L56.2103 81H54.8803L57.4983 73.986H59.0663L61.4323 81ZM59.2903 78.312L58.2963 75.246H58.1983L57.0643 78.312L58.1703 78.326L59.2903 78.312ZM65.5643 73.972C66.3203 73.972 66.9036 74.1587 67.3143 74.532C67.7343 74.896 67.9443 75.4187 67.9443 76.1C67.9443 76.9027 67.6783 77.5373 67.1463 78.004C66.6143 78.4613 65.8956 78.69 64.9903 78.69H64.1923V78.774L64.2483 81H62.9043L62.9603 78.9L62.9043 73.986L65.5643 73.972ZM65.3263 77.682C66.129 77.514 66.5303 77.024 66.5303 76.212C66.5303 75.8107 66.4183 75.512 66.1943 75.316C65.9703 75.12 65.625 75.0127 65.1583 74.994L64.2483 75.022L64.2063 77.654L65.3263 77.682ZM72.2811 77.276C73.1678 78.424 74.1618 79.5627 75.2631 80.692L75.2351 80.888C74.7965 81 74.3578 81.0793 73.9191 81.126L73.7231 81.042C72.5565 79.642 71.5951 78.4147 70.8391 77.36V77.262L73.0931 74.644L73.5411 73.986L75.0811 73.972L72.2811 77.276ZM70.7971 78.774L70.8531 81H69.5091L69.5651 78.9L69.5091 73.986H70.8671L70.7971 78.774Z" fill="#CFE3FF"/>
<path d="M55.7103 60.7057L55.7099 60.706C55.1255 61.1217 54.4714 61.0788 53.9372 60.745C53.3912 60.4037 52.9997 59.7714 52.9997 59.0589V23.6599C52.9997 23.2342 52.9253 22.788 52.7075 22.375C52.4867 21.9561 52.1341 21.6014 51.6288 21.3424C51.2118 21.1287 44.4453 17.5741 37.7768 14.0696C34.444 12.3181 31.1374 10.58 28.664 9.27983L25.6797 7.71101L24.8453 7.27238L24.6257 7.15693L24.5694 7.12734L24.5552 7.11985L24.5516 7.11797L24.5507 7.11749C24.5505 7.11739 24.5504 7.11734 24.3177 7.5599L24.5504 7.11734L24.5221 7.10243L24.492 7.09126C24.4729 7.08413 24.4361 7.06681 24.3837 7.04218C24.1338 6.92455 23.5301 6.64037 22.8064 6.5061C21.889 6.33588 20.6963 6.36879 19.3536 7.05924C18.1507 7.67776 17.2145 8.32705 16.5317 8.90812C15.8596 9.48011 15.4049 10.0099 15.1992 10.3993L14.9691 10.8347L15.401 11.0714L44.031 26.7584L44.0309 26.7585L44.0387 26.7625C44.6831 27.101 44.9997 27.5705 44.9997 28.1259V65.9275C44.9921 66.2613 44.8939 66.5869 44.7157 66.8694C44.5369 67.1529 44.2843 67.3823 43.9849 67.533C43.6925 67.6769 43.3706 67.7512 43.0447 67.7498L43.0368 67.7499C42.6545 67.7545 42.2784 67.6534 41.95 67.4577C41.7251 67.3206 39.4191 65.9073 36.1958 63.9317C28.1073 58.9741 14.2426 50.4761 12.9945 49.7233L12.9935 49.7227C12.6216 49.4995 12.2073 49.1514 11.8882 48.775C11.5544 48.3813 11.3989 48.0445 11.3917 47.8381L10.9997 11.8474C10.9997 11.8465 10.9997 11.8456 10.9997 11.8446C10.9997 11.8001 10.9995 11.7547 10.9992 11.7082C10.9971 11.3766 10.9948 10.9914 11.087 10.5127C11.1912 9.97139 11.4201 9.30131 11.9317 8.50591L11.9318 8.50582C13.0771 6.72463 15.7152 4.74945 18.6373 3.49703C20.0891 2.87483 21.5837 2.44328 22.9638 2.30034C24.3479 2.15698 25.5799 2.30734 26.5409 2.80617L26.5409 2.8062L26.5454 2.80851L58.0384 18.7492C58.039 18.7495 58.0396 18.7498 58.0401 18.7501C58.5863 19.0327 58.9997 19.6107 58.9997 20.8249V57.0534C58.9997 57.7915 58.6922 58.3447 58.1208 58.8991C57.6586 59.3476 57.065 59.7604 56.3618 60.2494C56.154 60.3939 55.9367 60.545 55.7103 60.7057Z" stroke="#C6C6FF"/>
<path fill-rule="evenodd" clip-rule="evenodd" d="M39.3897 30.4275C39.7479 30.4815 41.0648 30.3535 41.4375 30.1226C41.8607 29.8604 41.988 29.3082 41.7239 28.8894C41.4643 28.4725 40.9076 28.3435 40.4908 28.603C40.1389 28.8221 39.4796 29.8617 39.3282 30.2536C38.849 30.5841 38.3229 30.9889 37.7525 31.4654C38.0294 31.0242 38.3171 30.4649 38.3422 30.1847C38.3923 29.6796 38.0192 29.2318 37.5123 29.1863C37.0054 29.1407 36.5594 29.5093 36.5139 30.0162C36.4771 30.4394 36.9211 31.6161 37.1472 31.9834C36.6078 32.4554 36.0333 32.9845 35.4255 33.5687C35.7352 33.1035 36.1057 32.4192 36.1353 32.0997C36.1782 31.5864 35.8025 31.1323 35.2911 31.0849C34.7733 31.0402 34.321 31.4113 34.2763 31.9291C34.2353 32.403 34.7695 33.7694 34.9731 34.0078C34.3067 34.6606 33.6028 35.3757 32.8638 36.1508C33.2673 35.4704 33.812 34.2825 33.8169 33.7744C33.824 33.0414 33.233 32.4462 32.5064 32.4364C31.7779 32.4312 31.18 33.0158 31.1729 33.7488C31.1663 34.4319 32.1167 36.3625 32.4156 36.6236C31.7124 37.3699 30.9788 38.1681 30.2167 39.0163C30.6588 38.2009 31.2112 36.8881 31.2029 36.3212C31.1885 35.4742 30.4891 34.7976 29.6331 34.8082C28.7862 34.8226 28.1095 35.522 28.122 36.3735C28.1377 37.1564 29.264 39.3166 29.638 39.6639C28.9311 40.459 28.2008 41.2953 27.4487 42.1712C27.7792 41.1146 28.1549 39.1574 27.9768 38.427C27.7302 37.4162 26.7124 36.7978 25.7016 37.0444C24.6908 37.291 24.0724 38.3088 24.319 39.3196C24.5348 40.2039 26.2988 42.3123 26.929 42.7786C26.1684 43.6709 25.3862 44.6024 24.5838 45.5716C24.6926 44.4362 24.6082 42.0318 24.2195 41.2604C23.7144 40.258 22.5049 39.8705 21.527 40.3956C20.544 40.9199 20.1574 42.1556 20.6625 43.158C21.0925 44.0112 23.3235 45.7047 24.1497 46.0972C23.2624 47.1742 22.3512 48.2963 21.4178 49.4615C21.4051 48.5134 20.96 46.0949 20.4593 45.4067C19.8482 44.5666 18.6682 44.3809 17.8281 44.9921C16.988 45.6032 16.8023 46.7832 17.4135 47.6233C17.9735 48.393 20.618 49.7598 21.2417 49.8489L21.2436 49.8501C21.2453 49.851 21.2469 49.8517 21.2485 49.8523L21.2491 49.8527C21.5542 50.3517 23.961 52.1969 24.9094 52.3776C25.933 52.5726 26.9217 51.9069 27.1122 50.8813C27.3027 49.8558 26.6307 48.8698 25.6115 48.6766C24.797 48.5223 22.5138 49.1234 21.6012 49.5178C22.522 48.3689 23.4211 47.2622 24.2968 46.1994C24.7218 46.868 26.6896 48.7776 27.5533 49.0548C28.5405 49.3768 29.6057 48.8319 29.9249 47.8383C30.2469 46.8511 29.7001 45.7904 28.7129 45.4685C27.9219 45.2146 25.5787 45.5225 24.6256 45.801C25.4683 44.782 26.2889 43.8044 27.0856 42.8699C27.4756 43.5135 29.4845 45.466 30.3577 45.7507C31.3449 46.0727 32.4101 45.5278 32.7293 44.5342C33.0513 43.5469 32.5064 42.4818 31.5173 42.1644C30.7166 41.9074 28.3253 42.226 27.3955 42.5072C28.232 41.5303 29.0416 40.6021 29.8225 39.7243C30.1764 40.2082 31.9898 41.6415 32.7289 41.8005C33.5596 41.9792 34.3772 41.4482 34.5577 40.613C34.7364 39.7824 34.2054 38.9647 33.3747 38.7861C32.7234 38.6498 30.9113 39.0753 30.1293 39.3804C30.9718 38.4386 31.78 37.5571 32.5515 36.7385C32.8804 37.2327 34.2164 38.5352 34.8117 38.7304C35.5064 38.9584 36.2548 38.5828 36.4846 37.8836C36.7125 37.1888 36.337 36.4404 35.6422 36.2125C35.1124 36.0387 33.5893 36.2207 32.8669 36.4051C33.6411 35.5901 34.3771 34.8405 35.0722 34.1589C35.3586 34.5412 36.2202 35.3699 36.6188 35.4997C37.1038 35.6624 37.6336 35.3967 37.7982 34.9072C37.9564 34.4203 37.6952 33.8923 37.2038 33.7323C36.8662 33.6188 35.9582 33.7132 35.4117 33.8282C36.0782 33.1837 36.7052 32.6047 37.2904 32.0937C37.4415 32.3786 38.4527 33.3855 38.891 33.5275C39.3734 33.6839 39.8905 33.4235 40.045 32.9456C40.2013 32.4632 39.9428 31.9416 39.4604 31.7852C39.0741 31.66 37.9331 31.8043 37.47 31.9379C38.174 31.3311 38.8153 30.8261 39.3897 30.4275Z" fill="#CFE3FF"/>
</svg>
